<svg xmlns="http://www.w3.org/2000/svg" viewBox="0 0 600 600" width="600" height="600"><metadata><rdf:RDF xmlns:rdf="http://www.w3.org/1999/02/22-rdf-syntax-ns#" xmlns:dc="http://purl.org/dc/elements/1.1/"><rdf:Description><dc:creator>RealFaviconGenerator</dc:creator><dc:source>https://realfavicongenerator.net</dc:source></rdf:Description></rdf:RDF></metadata><defs>
    <linearGradient id="bg-gradient" x1="0%" y1="0%" x2="100%" y2="100%">
      <stop offset="0%" stop-color="#ffffff"></stop>
      <stop offset="100%" stop-color="#cccccc"></stop>
    </linearGradient>
    
    <!-- Grid pattern for the background -->
    <pattern id="grid" width="40" height="40" patternUnits="userSpaceOnUse">
      <path d="M 40 0 L 0 0 0 40" fill="none" stroke="#888888" stroke-width="0.7" opacity="0.3"></path>
    </pattern>
    
    <!-- Drop shadow for the hexagon -->
    <filter id="shadow" x="-10%" y="-10%" width="120%" height="120%">
      <feDropShadow dx="0" dy="4" stdDeviation="10" flood-opacity="0.3"></feDropShadow>
    </filter>
    
    <!-- Mask for the elements to keep them inside the hexagon -->
    <clipPath id="hex-clip">
      <path d="M300,80 L490,190 L490,410 L300,520 L110,410 L110,190 Z"></path>
    </clipPath>
  </defs><path d="M300,60 L510,180 L510,420 L300,540 L90,420 L90,180 Z" fill="url(#bg-gradient)" stroke="#666666" stroke-width="8" filter="url(#shadow)"></path><rect x="110" y="190" width="380" height="230" fill="url(#grid)" clip-path="url(#hex-clip)"></rect><g clip-path="url(#hex-clip)">
    <!-- Top section: Time series visualization -->
    <g transform="translate(0, 160)">
      <!-- X-axis (baseline) without year labels -->
      <line x1="110" y1="130" x2="490" y2="130" stroke="#555555" stroke-width="1.5"></line>
      
      <!-- Small spikes (2-5 units) -->
      <line x1="122" y1="130" x2="122" y2="127" stroke="#333333" stroke-width="1"></line>
      <line x1="136" y1="130" x2="136" y2="125" stroke="#333333" stroke-width="1"></line>
      <line x1="149" y1="130" x2="149" y2="126" stroke="#333333" stroke-width="1"></line>
      <line x1="164" y1="130" x2="164" y2="127" stroke="#333333" stroke-width="1"></line>
      <line x1="182" y1="130" x2="182" y2="125" stroke="#333333" stroke-width="1"></line>
      <line x1="198" y1="130" x2="198" y2="126" stroke="#333333" stroke-width="1"></line>
      <line x1="212" y1="130" x2="212" y2="127" stroke="#333333" stroke-width="1"></line>
      <line x1="227" y1="130" x2="227" y2="125" stroke="#333333" stroke-width="1"></line>
      <line x1="243" y1="130" x2="243" y2="126" stroke="#333333" stroke-width="1"></line>
      <line x1="256" y1="130" x2="256" y2="127" stroke="#333333" stroke-width="1"></line>
      <line x1="273" y1="130" x2="273" y2="125" stroke="#333333" stroke-width="1"></line>
      <line x1="293" y1="130" x2="293" y2="127" stroke="#333333" stroke-width="1"></line>
      <line x1="307" y1="130" x2="307" y2="125" stroke="#333333" stroke-width="1"></line>
      <line x1="322" y1="130" x2="322" y2="126" stroke="#333333" stroke-width="1"></line>
      <line x1="338" y1="130" x2="338" y2="127" stroke="#333333" stroke-width="1"></line>
      <line x1="354" y1="130" x2="354" y2="125" stroke="#333333" stroke-width="1"></line>
      <line x1="371" y1="130" x2="371" y2="127" stroke="#333333" stroke-width="1"></line>
      <line x1="389" y1="130" x2="389" y2="126" stroke="#333333" stroke-width="1"></line>
      <line x1="406" y1="130" x2="406" y2="125" stroke="#333333" stroke-width="1"></line>
      <line x1="422" y1="130" x2="422" y2="127" stroke="#333333" stroke-width="1"></line>
      <line x1="442" y1="130" x2="442" y2="125" stroke="#333333" stroke-width="1"></line>
      <line x1="460" y1="130" x2="460" y2="126" stroke="#333333" stroke-width="1"></line>
      <line x1="479" y1="130" x2="479" y2="127" stroke="#333333" stroke-width="1"></line>
      
      <!-- Additional slightly taller small spikes (5-8 units) -->
      <line x1="128" y1="130" x2="128" y2="122" stroke="#333333" stroke-width="1"></line>
      <line x1="156" y1="130" x2="156" y2="123" stroke="#333333" stroke-width="1"></line>
      <line x1="186" y1="130" x2="186" y2="121" stroke="#333333" stroke-width="1"></line>
      <line x1="202" y1="130" x2="202" y2="122" stroke="#333333" stroke-width="1"></line>
      <line x1="224" y1="130" x2="224" y2="123" stroke="#333333" stroke-width="1"></line>
      <line x1="241" y1="130" x2="241" y2="122" stroke="#333333" stroke-width="1"></line>
      <line x1="263" y1="130" x2="263" y2="121" stroke="#333333" stroke-width="1"></line>
      <line x1="284" y1="130" x2="284" y2="122" stroke="#333333" stroke-width="1"></line>
      <line x1="306" y1="130" x2="306" y2="123" stroke="#333333" stroke-width="1"></line>
      <line x1="326" y1="130" x2="326" y2="121" stroke="#333333" stroke-width="1"></line>
      <line x1="348" y1="130" x2="348" y2="122" stroke="#333333" stroke-width="1"></line>
      <line x1="374" y1="130" x2="374" y2="123" stroke="#333333" stroke-width="1"></line>
      <line x1="395" y1="130" x2="395" y2="121" stroke="#333333" stroke-width="1"></line>
      <line x1="416" y1="130" x2="416" y2="122" stroke="#333333" stroke-width="1"></line>
      <line x1="438" y1="130" x2="438" y2="123" stroke="#333333" stroke-width="1"></line>
      <line x1="465" y1="130" x2="465" y2="121" stroke="#333333" stroke-width="1"></line>
      <line x1="483" y1="130" x2="483" y2="122" stroke="#333333" stroke-width="1"></line>
      
      <!-- Medium spikes (10-20 units) -->
      <line x1="116" y1="130" x2="116" y2="115" stroke="#333333" stroke-width="1"></line>
      <line x1="130" y1="130" x2="130" y2="110" stroke="#333333" stroke-width="1"></line>
      <line x1="143" y1="130" x2="143" y2="112" stroke="#333333" stroke-width="1"></line>
      <line x1="157" y1="130" x2="157" y2="118" stroke="#333333" stroke-width="1"></line>
      <line x1="172" y1="130" x2="172" y2="110" stroke="#333333" stroke-width="1"></line>
      <line x1="190" y1="130" x2="190" y2="115" stroke="#333333" stroke-width="1"></line>
      <line x1="206" y1="130" x2="206" y2="110" stroke="#333333" stroke-width="1"></line>
      <line x1="220" y1="130" x2="220" y2="112" stroke="#333333" stroke-width="1"></line>
      <line x1="235" y1="130" x2="235" y2="110" stroke="#333333" stroke-width="1"></line>
      <line x1="252" y1="130" x2="252" y2="112" stroke="#333333" stroke-width="1"></line>
      <line x1="267" y1="130" x2="267" y2="110" stroke="#333333" stroke-width="1"></line>
      <line x1="288" y1="130" x2="288" y2="110" stroke="#333333" stroke-width="1"></line>
      <line x1="301" y1="130" x2="301" y2="115" stroke="#333333" stroke-width="1"></line>
      <line x1="313" y1="130" x2="313" y2="110" stroke="#333333" stroke-width="1"></line>
      <line x1="332" y1="130" x2="332" y2="110" stroke="#333333" stroke-width="1"></line>
      <line x1="350" y1="130" x2="350" y2="115" stroke="#333333" stroke-width="1"></line>
      <line x1="367" y1="130" x2="367" y2="110" stroke="#333333" stroke-width="1"></line>
      <line x1="382" y1="130" x2="382" y2="112" stroke="#333333" stroke-width="1"></line>
      <line x1="399" y1="130" x2="399" y2="110" stroke="#333333" stroke-width="1"></line>
      <line x1="419" y1="130" x2="419" y2="115" stroke="#333333" stroke-width="1"></line>
      <line x1="435" y1="130" x2="435" y2="115" stroke="#333333" stroke-width="1"></line>
      <line x1="452" y1="130" x2="452" y2="110" stroke="#333333" stroke-width="1"></line>
      <line x1="472" y1="130" x2="472" y2="115" stroke="#333333" stroke-width="1"></line>
      
      <!-- Large spikes (20-30 units) -->
      <line x1="175" y1="130" x2="175" y2="100" stroke="#333333" stroke-width="1"></line>
      <line x1="217" y1="130" x2="217" y2="95" stroke="#333333" stroke-width="1"></line>
      <line x1="260" y1="130" x2="260" y2="100" stroke="#333333" stroke-width="1"></line>
      <line x1="310" y1="130" x2="310" y2="98" stroke="#333333" stroke-width="1"></line>
      <line x1="385" y1="130" x2="385" y2="100" stroke="#333333" stroke-width="1"></line>
      <line x1="425" y1="130" x2="425" y2="100" stroke="#333333" stroke-width="1"></line>
      <line x1="478" y1="130" x2="478" y2="95" stroke="#333333" stroke-width="1"></line>
      
      <!-- Very tall spikes (30+ units) - matching the specific high spikes in example -->
      <line x1="245" y1="130" x2="245" y2="80" stroke="#333333" stroke-width="1"></line>
      <line x1="330" y1="130" x2="330" y2="85" stroke="#333333" stroke-width="1"></line>
      <line x1="345" y1="130" x2="345" y2="70" stroke="#333333" stroke-width="1"></line>
      <line x1="346" y1="130" x2="346" y2="69" stroke="#333333" stroke-width="1"></line>
      <line x1="410" y1="130" x2="410" y2="90" stroke="#333333" stroke-width="1"></line>
    </g>
    
    <!-- Bottom section: Statistical distributions visualization -->
    <g transform="translate(0, 130)">
      <!-- X-axis -->
      <line x1="110" y1="270" x2="490" y2="270" stroke="#555555" stroke-width="1.5"></line>
      
      <!-- Green distribution (similar to the example) -->
      <path d="M120,270 
      C130,200 150,180 170,190 
      C190,210 210,260 230,268 
      C250,270 270,270 490,270" stroke="#66c2a5" stroke-width="1.5" fill="#66c2a5" fill-opacity="0.4"></path>
      
      <!-- Blue distribution (similar to the example) -->
      <path d="M150,270 
      C170,240 190,220 210,210 
      C250,200 280,230 310,255 
      C340,265 370,270 490,270" stroke="#3288bd" stroke-width="1.5" fill="#3288bd" fill-opacity="0.4"></path>
      
      <!-- Pink distribution (similar to the example) -->
      <path d="M180,270 
      C200,268 220,260 240,245 
      C260,225 290,210 320,210 
      C370,210 410,240 440,260 
      C460,268 480,270 490,270" stroke="#d53e4f" stroke-width="1.5" fill="#d53e4f" fill-opacity="0.4"></path>
    </g>
  </g><text x="300" y="150" font-family="Helvetica, Arial, sans-serif" font-weight="bold" font-size="65" text-anchor="middle" fill="#333333">R</text><text x="300" y="460" font-family="Helvetica, Arial, sans-serif" font-weight="normal" font-size="72" text-anchor="middle" fill="#333333">anyFit</text></svg>